DataRate=1500.000000
DataType=double
version=3
OpenSimVersion=4.3-2021-08-27-4bc7ad9
endheader
time	f1_1	f1_2	f1_3	p1_1	p1_2	p1_3	m1_1	m1_2	m1_3	f2_1	f2_2	f2_3	p2_1	p2_2	p2_3	m2_1	m2_2	m2_3	f3_1	f3_2	f3_3	p3_1	p3_2	p3_3	m3_1	m3_2	m3_3
1.141333333333333	0	0	0	-259.089987039566	398.0210380554199	1.304700013250113	0	0	0	0	0	-0	251.3170061707497	231.4150097742677	1.697000026702881	0	0	-0	20.70063721783365	-35.24129087022307	523.4660122681784	949.9620513916016	396.987003326416	4.582600176334381	73400.75996660365	-70355.52591340801	-8402.45160613906
1.142	0	0	0	-259.089987039566	398.0210380554199	1.304700013250113	0	0	0	0	0	-0	251.3170061707497	231.4150097742677	1.697000026702881	0	0	-0	20.11790900205764	-35.86279884748856	520.7771789635918	949.9620513916016	396.987003326416	4.582600176334381	72975.00968348849	-70155.43725827578	-8183.719416666522
1.142666666666667	0	0	0	-259.089987039566	398.0210380554199	1.304700013250113	0	0	0	0	0	-0	251.3170061707497	231.4150097742677	1.697000026702881	0	0	-0	18.77991359007196	-36.49742934391492	518.6266725145418	949.9620513916016	396.987003326416	4.582600176334381	72726.45407579913	-70555.78052336797	-8251.599058495434
1.143333333333333	0	0	0	-259.089987039566	398.0210380554199	1.304700013250113	0	0	0	0	0	-0	251.3170061707497	231.4150097742677	1.697000026702881	0	0	-0	19.75575129446672	-36.65901061073129	521.1043862242171	949.9620513916016	396.987003326416	4.582600176334381	72952.50512250727	-69481.53908644241	-8077.649399766429
1.144	0	0	0	-259.089987039566	398.0210380554199	1.304700013250113	0	0	0	0	0	-0	251.3170061707497	231.4150097742677	1.697000026702881	0	0	-0	18.17674411191247	-36.56068551245211	518.5023960741861	949.9620513916016	396.987003326416	4.582600176334381	72752.04796113964	-69260.24788713502	-8116.067546385026
1.144666666666667	0	0	0	-259.089987039566	398.0210380554199	1.304700013250113	0	0	0	0	0	-0	251.3170061707497	231.4150097742677	1.697000026702881	0	0	-0	17.51113140191106	-36.47715246783021	519.6691476984953	949.9620513916016	396.987003326416	4.582600176334381	72915.55992583772	-69708.42639363511	-8233.295663030063
1.145333333333333	0	0	0	-259.089987039566	398.0210380554199	1.304700013250113	0	0	0	0	0	-0	251.3170061707497	231.4150097742677	1.697000026702881	0	0	-0	18.70908974557431	-36.5284901936854	516.6515416115378	949.9620513916016	396.987003326416	4.582600176334381	72567.1395713182	-69932.59872884957	-8041.30487406897
1.146	0	0	0	-259.089987039566	398.0210380554199	1.304700013250113	0	0	0	0	0	-0	251.3170061707497	231.4150097742677	1.697000026702881	0	0	-0	17.60949970116879	-36.21401630375192	512.9723413294481	949.9620513916016	396.987003326416	4.582600176334381	72620.57695711155	-69142.14052547749	-7908.234665143027
1.146666666666667	0	0	0	-259.089987039566	398.0210380554199	1.304700013250113	0	0	0	0	0	-0	251.3170061707497	231.4150097742677	1.697000026702881	0	0	-0	17.47988104036875	-35.95881197357778	513.6833815942251	949.9620513916016	396.987003326416	4.582600176334381	72592.25984901574	-69064.59424517753	-8078.940690907859
1.147333333333333	0	0	0	-259.089987039566	398.0210380554199	1.304700013250113	0	0	0	0	0	-0	251.3170061707497	231.4150097742677	1.697000026702881	0	0	-0	17.20739179687347	-36.27422472988139	514.8216965473559	949.9620513916016	396.987003326416	4.582600176334381	72337.60718283517	-68740.72899838642	-8363.848122192809
1.148	0	0	0	-259.089987039566	398.0210380554199	1.304700013250113	0	0	0	0	0	-0	251.3170061707497	231.4150097742677	1.697000026702881	0	0	-0	17.19465075025261	-35.68474075665117	512.074886698474	949.9620513916016	396.987003326416	4.582600176334381	71910.21744352741	-68633.62682751914	-7959.679740403093
1.148666666666667	0	0	0	-259.089987039566	398.0210380554199	1.304700013250113	0	0	0	0	0	-0	251.3170061707497	231.4150097742677	1.697000026702881	0	0	-0	16.70967747792364	-36.20937489194778	511.8787733369257	949.9620513916016	396.987003326416	4.582600176334381	72729.23152733024	-68418.29895750036	-7825.678584626222
1.149333333333333	0	0	0	-259.089987039566	398.0210380554199	1.304700013250113	0	0	0	0	0	-0	251.3170061707497	231.4150097742677	1.697000026702881	0	0	-0	16.54115531165164	-35.72218237813556	512.3256814317675	949.9620513916016	396.987003326416	4.582600176334381	72319.55991063941	-68110.1708516973	-7858.976148655629
1.15	0	0	0	-259.089987039566	398.0210380554199	1.304700013250113	0	0	0	0	0	-0	251.3170061707497	231.4150097742677	1.697000026702881	0	0	-0	16.14955869272908	-35.9516333648528	511.421892575701	949.9620513916016	396.987003326416	4.582600176334381	72165.15432927912	-67925.45039628778	-7885.635457398637
1.150666666666667	0	0	0	-259.089987039566	398.0210380554199	1.304700013250113	0	0	0	0	0	-0	251.3170061707497	231.4150097742677	1.697000026702881	0	0	-0	16.33039918126056	-35.77526042060521	513.920435275521	949.9620513916016	396.987003326416	4.582600176334381	72022.54600829675	-67352.01168687169	-7598.240182750257
1.151333333333333	0	0	0	-259.089987039566	398.0210380554199	1.304700013250113	0	0	0	0	0	-0	251.3170061707497	231.4150097742677	1.697000026702881	0	0	-0	15.87158901772954	-35.81009187598931	514.0222022356687	949.9620513916016	396.987003326416	4.582600176334381	71807.72645933255	-67778.2492933773	-7512.834074149552
